<svg xmlns="http://www.w3.org/2000/svg" width="221.202" height="34.75" viewBox="0 0 221.202 34.75"><g transform="translate(-140.882 -265.922)"><rect width="3.616" height="20.328" transform="translate(197.374 273.441)" fill="#068ea5"/><path d="M299.561,282.2a5.5,5.5,0,0,0-4.961,2.846h-.231l-.461-2.385h-2.846v20.328h3.615V290.51a6.03,6.03,0,0,1,1.038-3.673,3.076,3.076,0,0,1,2.539-1.4,2.646,2.646,0,0,1,2.1.808,4.2,4.2,0,0,1,.711,2.769v13.981h3.616V288.433Q304.676,282.2,299.561,282.2Z" transform="translate(-85.072 -9.222)" fill="#068ea5"/><path d="M380,282.2a6.687,6.687,0,0,0-5.749,2.576q-1.9,2.578-1.9,8,0,5.5,1.923,8.038a6.823,6.823,0,0,0,5.808,2.539,6.423,6.423,0,0,0,4.9-1.981,7.622,7.622,0,0,0,1.865-5.442H383.27a5.145,5.145,0,0,1-.866,3.154,2.721,2.721,0,0,1-2.288,1.154,3.251,3.251,0,0,1-3.019-1.577,10.027,10.027,0,0,1-.981-4.885h10.73v-1.731q0-5.115-1.692-7.481A5.916,5.916,0,0,0,380,282.2Zm-3.846,8.577a8.57,8.57,0,0,1,1.1-4.115A3.085,3.085,0,0,1,380,285.317a2.482,2.482,0,0,1,2.308,1.4,8.611,8.611,0,0,1,.769,4.057Z" transform="translate(-131.118 -9.222)" fill="#068ea5"/><path d="M418.441,287.162a2.637,2.637,0,0,1,2.5-1.673,2.233,2.233,0,0,1,2.154,1.154,8.281,8.281,0,0,1,.615,3.692h3.731q0-8-6.5-8a5.991,5.991,0,0,0-5.346,2.576q-1.731,2.578-1.731,8,0,5.462,1.712,8.019a6.073,6.073,0,0,0,5.442,2.558,5.609,5.609,0,0,0,4.808-2.173,9.551,9.551,0,0,0,1.616-5.827h-3.577a7.7,7.7,0,0,1-.673,3.634,2.3,2.3,0,0,1-2.173,1.212,2.692,2.692,0,0,1-2.577-1.654,12,12,0,0,1-.807-5.038v-1.462A12.021,12.021,0,0,1,418.441,287.162Z" transform="translate(-154.636 -9.298)" fill="#068ea5"/><path d="M460.754,282.336a6.489,6.489,0,0,0-5.615,2.6q-1.885,2.6-1.885,7.98t1.885,7.98a7.39,7.39,0,0,0,11.25,0q1.866-2.6,1.866-7.98t-1.866-7.98A6.479,6.479,0,0,0,460.754,282.336Zm3.731,11.307q0,6.692-3.731,6.692a2.968,2.968,0,0,1-2.788-1.673,10.886,10.886,0,0,1-.9-5.019v-1.462a10.886,10.886,0,0,1,.9-5.019,2.967,2.967,0,0,1,2.788-1.673q3.73,0,3.731,6.692Z" transform="translate(-176.95 -9.298)" fill="#068ea5"/><rect width="3.616" height="27.847" transform="translate(295.712 265.922)" fill="#068ea5"/><rect width="3.616" height="27.847" transform="translate(187.914 265.922)" fill="#068ea5"/><rect width="3.615" height="27.847" transform="translate(303.919 265.922)" fill="#068ea5"/><path d="M542.791,282.2a6.689,6.689,0,0,0-5.751,2.576q-1.9,2.578-1.9,8,0,5.5,1.922,8.038a6.824,6.824,0,0,0,5.808,2.539,6.425,6.425,0,0,0,4.9-1.981,7.623,7.623,0,0,0,1.865-5.442h-3.578a5.145,5.145,0,0,1-.865,3.154,2.723,2.723,0,0,1-2.289,1.154,3.252,3.252,0,0,1-3.019-1.577,10.029,10.029,0,0,1-.98-4.885h10.73v-1.731q0-5.115-1.692-7.481A5.915,5.915,0,0,0,542.791,282.2Zm-3.846,8.577a8.576,8.576,0,0,1,1.1-4.115,3.086,3.086,0,0,1,2.751-1.346,2.482,2.482,0,0,1,2.308,1.4,8.611,8.611,0,0,1,.769,4.057Z" transform="translate(-223.334 -9.222)" fill="#068ea5"/><path d="M342.321,297.194h-6.154a1.629,1.629,0,0,1-1.173-.461,1.487,1.487,0,0,1-.481-1.115,1.593,1.593,0,0,1,.481-1.173,1.643,1.643,0,0,1,1.211-.481h2.077a6.624,6.624,0,0,0,4.961-1.846,6.784,6.784,0,0,0,1.808-4.962,6.641,6.641,0,0,0-1.73-4.731l-.044-.03a3.541,3.541,0,0,0,3.391-3.533h-3.549a3.536,3.536,0,0,0-3.018,1.7,7.237,7.237,0,0,0-1.934-.255,6.324,6.324,0,0,0-6.884,6.846,7.215,7.215,0,0,0,.616,3.039,6.119,6.119,0,0,0,1.768,2.269,4.858,4.858,0,0,0-2.1,1.365,3.143,3.143,0,0,0-.789,2.135,3.543,3.543,0,0,0,.443,1.73A3.581,3.581,0,0,0,332.436,299a4.061,4.061,0,0,0-1.9,1.635,4.784,4.784,0,0,0-.711,2.6A4.556,4.556,0,0,0,334.667,308H340.9a6.03,6.03,0,0,0,4.461-1.654,5.732,5.732,0,0,0,1.654-4.231,4.965,4.965,0,0,0-1.308-3.519A4.417,4.417,0,0,0,342.321,297.194Zm-6.6-12.962a2.889,2.889,0,0,1,2.4-1.038,2.967,2.967,0,0,1,2.443,1.019,4.577,4.577,0,0,1,.826,2.942,4.527,4.527,0,0,1-.846,2.9,2.92,2.92,0,0,1-2.423,1.058,2.887,2.887,0,0,1-2.4-1.039,5.581,5.581,0,0,1,0-5.846Zm3.526,20.761H333.3a4.508,4.508,0,0,1,4.554-4.655H343.8A4.635,4.635,0,0,1,339.251,304.994Z" transform="translate(-107.028 -7.33)" fill="#068ea5"/><rect width="3.616" height="3.616" transform="translate(197.374 265.922)" fill="#068ea5"/><g transform="translate(140.882 265.922)"><g transform="translate(14.801)"><path d="M175.022,278.969a13.047,13.047,0,0,1,13.047-13.047v13.047Z" transform="translate(-175.022 -265.922)" fill="#068ea5"/></g><g transform="translate(29.601)"><path d="M222.208,265.922a13.046,13.046,0,0,1-13.047,13.047V265.922Z" transform="translate(-209.161 -265.922)" fill="#068ea5"/></g><g transform="translate(0 14.801)"><path d="M140.882,313.109a13.046,13.046,0,0,1,13.047-13.047v13.047Z" transform="translate(-140.882 -300.062)" fill="#068ea5"/></g><g transform="translate(14.801 14.801)"><path d="M188.069,300.062a13.047,13.047,0,0,1-13.047,13.047V300.062Z" transform="translate(-175.022 -300.062)" fill="#068ea5"/></g></g><path d="M625.326,282.2a6.687,6.687,0,0,0-5.75,2.576q-1.9,2.578-1.9,8,0,5.5,1.923,8.038a6.824,6.824,0,0,0,5.808,2.539,6.423,6.423,0,0,0,4.9-1.981,7.621,7.621,0,0,0,1.865-5.442H628.6a5.148,5.148,0,0,1-.865,3.154,2.723,2.723,0,0,1-2.289,1.154,3.251,3.251,0,0,1-3.019-1.577,10.028,10.028,0,0,1-.981-4.885h10.73v-1.731q0-5.115-1.692-7.481A5.915,5.915,0,0,0,625.326,282.2Zm-3.846,8.577a8.569,8.569,0,0,1,1.1-4.115,3.085,3.085,0,0,1,2.749-1.346,2.482,2.482,0,0,1,2.308,1.4,8.611,8.611,0,0,1,.769,4.057Z" transform="translate(-270.088 -9.222)" fill="#068ea5"/><path d="M587.646,297.194h-6.154a1.629,1.629,0,0,1-1.173-.461,1.487,1.487,0,0,1-.481-1.115,1.593,1.593,0,0,1,.481-1.173,1.643,1.643,0,0,1,1.211-.481h2.078a6.624,6.624,0,0,0,4.961-1.846,6.784,6.784,0,0,0,1.808-4.962,6.639,6.639,0,0,0-1.73-4.731l-.044-.03a3.541,3.541,0,0,0,3.391-3.533h-3.549a3.536,3.536,0,0,0-3.018,1.7,7.237,7.237,0,0,0-1.933-.255,6.324,6.324,0,0,0-6.884,6.846,7.214,7.214,0,0,0,.616,3.039,6.12,6.12,0,0,0,1.769,2.269,4.857,4.857,0,0,0-2.1,1.365,3.143,3.143,0,0,0-.789,2.135,3.542,3.542,0,0,0,.443,1.73A3.585,3.585,0,0,0,577.761,299a4.058,4.058,0,0,0-1.9,1.635,4.781,4.781,0,0,0-.711,2.6A4.556,4.556,0,0,0,579.992,308h6.231a6.03,6.03,0,0,0,4.461-1.654,5.732,5.732,0,0,0,1.654-4.231,4.965,4.965,0,0,0-1.308-3.519A4.417,4.417,0,0,0,587.646,297.194Zm-6.6-12.962a2.891,2.891,0,0,1,2.4-1.038,2.966,2.966,0,0,1,2.443,1.019,4.576,4.576,0,0,1,.826,2.942,4.526,4.526,0,0,1-.846,2.9,2.92,2.92,0,0,1-2.423,1.058,2.888,2.888,0,0,1-2.4-1.039,5.581,5.581,0,0,1,0-5.846Zm3.526,20.761h-5.955a4.508,4.508,0,0,1,4.554-4.655h5.955A4.635,4.635,0,0,1,584.576,304.994Z" transform="translate(-245.998 -7.33)" fill="#068ea5"/></g></svg>