<svg version="1.1" xmlns="http://www.w3.org/2000/svg" xmlns:xlink="http://www.w3.org/1999/xlink" width="221.21432" height="34.75733" viewBox="0,0,221.21432,34.75733"><g transform="translate(-129.399,-162.625)"><g data-paper-data="{&quot;isPaintingLayer&quot;:true}" fill-rule="nonzero" stroke="none" stroke-width="1" stroke-linecap="butt" stroke-linejoin="miter" stroke-miterlimit="10" stroke-dasharray="" stroke-dashoffset="0" style="mix-blend-mode: normal"><path d="M185.891,190.472v-20.328h3.616v20.328z" fill="#ffffff"/><path d="M208.126,175.914v14.562h-3.616v-13.981c0.09409,-0.97774 -0.15749,-1.95754 -0.711,-2.769c-0.54491,-0.56838 -1.31464,-0.86453 -2.1,-0.808c-1.02699,0.01352 -1.97948,0.53871 -2.539,1.4c-0.73458,1.07964 -1.09883,2.36857 -1.038,3.673v12.479h-3.615v-20.328h2.846l0.461,2.385h0.231c0.9916,-1.80149 2.90533,-2.89935 4.961,-2.846c3.41,0 5.11667,2.07766 5.12,6.233z" fill="#ffffff"/><path d="M242.553,172.045c1.128,1.57734 1.692,4.071 1.692,7.481v1.731h-10.73c-0.08922,1.68493 0.2482,3.36514 0.981,4.885c0.6284,1.05295 1.79579,1.66275 3.019,1.577c0.9074,0.02102 1.76554,-0.4118 2.288,-1.154c0.62405,-0.92915 0.92809,-2.03645 0.866,-3.154h3.577c0.11303,1.98797 -0.55636,3.94125 -1.865,5.442c-1.27338,1.33289 -3.05807,2.05441 -4.9,1.981c-2.23549,0.1589 -4.40649,-0.79016 -5.808,-2.539c-1.282,-1.692 -1.923,-4.37133 -1.923,-8.038c0,-3.61467 0.63334,-6.28134 1.9,-8c1.36649,-1.7641 3.5229,-2.73033 5.749,-2.576c2.00833,-0.14029 3.95014,0.75037 5.154,2.364zM240.476,178.255c0.0765,-1.39469 -0.18742,-2.78705 -0.769,-4.057c-0.42612,-0.88081 -1.32996,-1.42907 -2.308,-1.4c-1.08876,-0.06873 -2.13287,0.44268 -2.746,1.345c-0.70713,1.25724 -1.08549,2.67262 -1.1,4.115z" fill="#ffffff"/><path d="M251.516,179.585v1.462c-0.09525,1.71777 0.17997,3.43593 0.807,5.038c0.43124,1.03377 1.45755,1.69249 2.577,1.654c0.8992,0.05648 1.74857,-0.41726 2.173,-1.212c0.51602,-1.13873 0.74701,-2.38599 0.673,-3.634h3.577c0.10665,2.06609 -0.46045,4.11095 -1.616,5.827c-1.14067,1.47996 -2.94343,2.29474 -4.808,2.173c-2.13846,0.16826 -4.20706,-0.80407 -5.442,-2.558c-1.14133,-1.70467 -1.712,-4.37767 -1.712,-8.019c0,-3.61467 0.577,-6.28134 1.731,-8c1.2017,-1.74291 3.23403,-2.72219 5.346,-2.576c4.33333,0 6.5,2.66666 6.5,8h-3.731c0.07945,-1.26147 -0.13092,-2.52439 -0.615,-3.692c-0.42515,-0.77826 -1.27055,-1.23118 -2.154,-1.154c-1.10089,-0.01894 -2.09766,0.6481 -2.5,1.673c-0.62323,1.5961 -0.89804,3.30701 -0.806,5.018z" fill="#ffffff"/><path d="M277.956,172.341c1.244,1.73334 1.866,4.39333 1.866,7.98c0,3.58667 -0.622,6.24666 -1.866,7.98c-1.40407,1.64784 -3.4601,2.59715 -5.625,2.59715c-2.1649,0 -4.22093,-0.9493 -5.625,-2.59715c-1.25666,-1.73334 -1.885,-4.39333 -1.885,-7.98c0,-3.58667 0.62833,-6.24666 1.885,-7.98c1.31134,-1.76071 3.42402,-2.73898 5.615,-2.6c2.19822,-0.1478 4.3209,0.83161 5.635,2.6zM276.052,179.586c-0.00067,-4.46133 -1.24433,-6.692 -3.731,-6.692c-1.17937,-0.04651 -2.27416,0.61043 -2.788,1.673c-0.69311,1.57816 -1.00158,3.29834 -0.9,5.019v1.462c-0.10158,1.72066 0.20689,3.44084 0.9,5.019c0.51405,1.06239 1.6087,1.71925 2.788,1.673c2.48733,0 3.731,-2.23067 3.731,-6.692z" fill="#ffffff"/><path d="M284.229,190.472v-27.847h3.616v27.847z" fill="#ffffff"/><path d="M176.431,190.472v-27.847h3.616v27.847z" fill="#ffffff"/><path d="M292.436,190.472v-27.847h3.615v27.847z" fill="#ffffff"/><path d="M313.125,172.045c1.128,1.57734 1.692,4.071 1.692,7.481v1.731h-10.73c-0.08945,1.68484 0.24763,3.36503 0.98,4.885c0.62856,1.05278 1.79584,1.66251 3.019,1.577c0.90767,0.02099 1.7661,-0.41179 2.289,-1.154c0.62369,-0.92927 0.92738,-2.03657 0.865,-3.154h3.578c0.11293,1.98795 -0.55646,3.94119 -1.865,5.442c-1.27353,1.33266 -3.05811,2.05415 -4.9,1.981c-2.23546,0.15873 -4.40637,-0.7903 -5.808,-2.539c-1.28134,-1.692 -1.922,-4.37133 -1.922,-8.038c0,-3.61467 0.63334,-6.28134 1.9,-8c1.36712,-1.76442 3.52427,-2.73066 5.751,-2.576c2.00732,-0.13942 3.94786,0.75116 5.151,2.364zM311.056,178.254c0.0765,-1.39469 -0.18742,-2.78705 -0.769,-4.057c-0.42612,-0.88081 -1.32997,-1.42907 -2.308,-1.4c-1.09065,-0.07011 -2.13703,0.44186 -2.751,1.346c-0.70689,1.25734 -1.08523,2.67266 -1.1,4.115z" fill="#ffffff"/><path d="M227.196,187.969c0.87976,0.9566 1.34937,2.22002 1.308,3.519c0.05492,1.57794 -0.54348,3.10866 -1.654,4.231c-1.19745,1.13945 -2.81015,1.7374 -4.461,1.654h-6.233c-1.29426,0.08291 -2.56251,-0.38971 -3.48689,-1.29939c-0.92437,-0.90967 -1.41726,-2.17019 -1.35512,-3.46561c-0.0171,-0.9169 0.2297,-1.81939 0.711,-2.6c0.44508,-0.73172 1.11011,-1.30399 1.9,-1.635c-0.50905,-0.32672 -0.92705,-0.77705 -1.215,-1.309c-0.29296,-0.52938 -0.44547,-1.12497 -0.443,-1.73c-0.01298,-0.78525 0.2685,-1.5469 0.789,-2.135c0.56866,-0.63073 1.29272,-1.10138 2.1,-1.365c-0.76126,-0.6051 -1.36734,-1.38293 -1.768,-2.269c-0.42316,-0.95639 -0.63335,-1.99332 -0.616,-3.039c-0.16275,-1.86762 0.5115,-3.71118 1.84078,-5.03312c1.32927,-1.32193 3.17654,-1.98597 5.04323,-1.81288c0.65322,-0.00268 1.3038,0.0831 1.934,0.255c0.64056,-1.05435 1.78432,-1.69861 3.018,-1.7h3.549c-0.00258,1.89543 -1.49727,3.45271 -3.391,3.533l0.044,0.03c1.1756,1.28861 1.79702,2.988 1.73,4.731c0.0923,1.83031 -0.55985,3.62011 -1.808,4.962c-1.32526,1.27804 -3.12265,1.94685 -4.961,1.846h-2.077c-0.45271,-0.01343 -0.89088,0.16061 -1.211,0.481c-0.31572,0.30761 -0.48986,0.73229 -0.481,1.173c-0.00564,0.42318 0.1693,0.82872 0.481,1.115c0.31331,0.30482 0.73598,0.47094 1.173,0.461h6.154c1.27844,-0.04504 2.5136,0.4664 3.386,1.402zM217.21,173.601c-1.10223,1.7928 -1.10223,4.0532 0,5.846c0.58827,0.7096 1.48001,1.09565 2.4,1.039c0.93021,0.05413 1.8304,-0.33894 2.423,-1.058c0.60573,-0.84129 0.90436,-1.86498 0.846,-2.9c0.06983,-1.04633 -0.22177,-2.08491 -0.826,-2.942c-0.6093,-0.70423 -1.51388,-1.08154 -2.443,-1.019c-0.91976,-0.05657 -1.81133,0.32904 -2.4,1.038zM220.74,194.367c2.53438,-0.04701 4.56092,-2.1212 4.549,-4.656h-5.946c-1.22947,-0.0132 -2.41098,0.47636 -3.27081,1.35525c-0.85983,0.8789 -1.32336,2.07086 -1.28319,3.29975h5.947z" fill="#ffffff"/><path d="M185.891,166.241v-3.616h3.616v3.616z" fill="#ffffff"/><g><g fill="#ffffff"><path d="M144.2,175.672c0,-7.20566 5.84134,-13.047 13.047,-13.047v13.047z"/></g><g fill="#a500ff"><path d="M172.047,162.625c0.00027,3.46036 -1.37424,6.77907 -3.82109,9.22591c-2.44684,2.44684 -5.76555,3.82135 -9.22591,3.82109v-13.047z"/></g><g fill="#ffffff"><path d="M129.399,190.473c-0.00027,-3.46036 1.37424,-6.77907 3.82109,-9.22592c2.44684,-2.44684 5.76555,-3.82135 9.22591,-3.82109v13.047z"/></g><g fill="#ffffff"><path d="M157.247,177.426c0,7.20566 -5.84134,13.047 -13.047,13.047v-13.047z"/></g></g><path d="M348.913,172.045c1.128,1.57734 1.692,4.071 1.692,7.481v1.731h-10.73c-0.08918,1.68493 0.24824,3.36513 0.981,4.885c0.6284,1.05295 1.79579,1.66275 3.019,1.577c0.90767,0.02099 1.7661,-0.41179 2.289,-1.154c0.62349,-0.92936 0.92716,-2.0366 0.865,-3.154h3.572c0.11314,1.98799 -0.55626,3.9413 -1.865,5.442c-1.27339,1.33289 -3.05807,2.05441 -4.9,1.981c-2.23546,0.15873 -4.40637,-0.7903 -5.808,-2.539c-1.282,-1.692 -1.923,-4.37133 -1.923,-8.038c0,-3.61467 0.63333,-6.28134 1.9,-8c1.36669,-1.76441 3.52355,-2.73068 5.75,-2.576c2.00973,-0.14187 3.95348,0.74898 5.158,2.364zM346.835,178.254c0.0765,-1.39469 -0.18742,-2.78705 -0.769,-4.057c-0.42612,-0.88081 -1.32997,-1.42907 -2.308,-1.4c-1.08999,-0.06959 -2.13554,0.44234 -2.749,1.346c-0.70717,1.25722 -1.08553,2.67262 -1.1,4.115z" fill="#ffffff"/><path d="M333.549,187.969c0.87977,0.9566 1.34937,2.22002 1.308,3.519c0.05492,1.57794 -0.54348,3.10866 -1.654,4.231c-1.19745,1.13945 -2.81015,1.7374 -4.461,1.654h-6.231c-1.29426,0.08291 -2.56251,-0.38971 -3.48689,-1.29939c-0.92437,-0.90967 -1.41726,-2.17019 -1.35512,-3.46561c-0.01727,-0.91692 0.22954,-1.81946 0.711,-2.6c0.44492,-0.73185 1.10999,-1.30417 1.9,-1.635c-0.50784,-0.32724 -0.92475,-0.77751 -1.212,-1.309c-0.293,-0.52937 -0.44552,-1.12496 -0.443,-1.73c-0.01298,-0.78525 0.26849,-1.5469 0.789,-2.135c0.56863,-0.63076 1.29271,-1.10142 2.1,-1.365c-0.76159,-0.60501 -1.36802,-1.38284 -1.769,-2.269c-0.42319,-0.95638 -0.63338,-1.99332 -0.616,-3.039c-0.16275,-1.86762 0.5115,-3.71118 1.84078,-5.03312c1.32927,-1.32193 3.17654,-1.98597 5.04322,-1.81288c0.65289,-0.00259 1.30312,0.08319 1.933,0.255c0.64056,-1.05435 1.78432,-1.69861 3.018,-1.7h3.549c-0.00258,1.89543 -1.49727,3.45271 -3.391,3.533l0.044,0.03c1.17579,1.2885 1.79724,2.98797 1.73,4.731c0.09229,1.83031 -0.55985,3.62011 -1.808,4.962c-1.32526,1.27804 -3.12265,1.94685 -4.961,1.846h-2.078c-0.45271,-0.01343 -0.89088,0.16061 -1.211,0.481c-0.31572,0.30761 -0.48986,0.73229 -0.481,1.173c-0.00565,0.42318 0.1693,0.82872 0.481,1.115c0.31331,0.30482 0.73599,0.47094 1.173,0.461h6.154c1.27774,-0.04445 2.51207,0.46693 3.384,1.402zM323.565,173.601c-1.10223,1.7928 -1.10223,4.0532 0,5.846c0.58837,0.70946 1.48004,1.09548 2.4,1.039c0.93021,0.05413 1.8304,-0.33894 2.423,-1.058c0.6058,-0.84125 0.90445,-1.86498 0.846,-2.9c0.06991,-1.04635 -0.22169,-2.08495 -0.826,-2.942c-0.6092,-0.70435 -1.51385,-1.08169 -2.443,-1.019c-0.91971,-0.05623 -1.81113,0.3293 -2.4,1.038zM327.095,194.367c2.53478,-0.04647 4.56191,-2.12082 4.55,-4.656h-5.955c-1.22947,-0.0132 -2.41098,0.47636 -3.27081,1.35525c-0.85983,0.8789 -1.32335,2.07086 -1.28319,3.29975h5.955z" fill="#ffffff"/></g></g></svg>